<svg xmlns="http://www.w3.org/2000/svg" width="25" height="24" viewBox="0 0 25 24" fill="none">
<path d="M21.8 12C21.8 17.1362 17.6362 21.3 12.5 21.3C7.36375 21.3 3.2 17.1362 3.2 12C3.2 6.86375 7.36375 2.7 12.5 2.7C17.6362 2.7 21.8 6.86375 21.8 12Z" stroke="#EA4335" stroke-width="1.4"/>
<path d="M13.266 6.31646L13.1566 14.4415H11.8441L11.7348 6.31646H13.266ZM12.5004 17.7227C11.9535 17.7227 11.4848 17.2696 11.5004 16.7071C11.4848 16.1602 11.9535 15.7071 12.5004 15.7071C13.0473 15.7071 13.5004 16.1602 13.5004 16.7071C13.5004 17.2696 13.0473 17.7227 12.5004 17.7227Z" fill="#EA4335"/>
</svg>